#!OML:ASF E:\Steps\Project 1\Capture day 1\Session 2\Subject.ASF
:FULLY-SPECIFIED
:DEGREES
565
root 24.7537 16.2562 -9.89144 -154.87 -39.3873 180.292
lowerback -25.5539 0.359844 -4.70234
upperback 0.841829 1.92171 -1.05732
thorax 15.2863 0.47147 2.18697
lowerneck 0.539627 1.54339 -2.74071
upperneck 19.0262 0.545958 4.3242
head 5.60529 -0.0271014 1.80901
rclavicle 9.57148e-014 9.14409e-015
rhumerus -27.8405 -8.45696 -82.8341
rradius 46.8075
rwrist -10.4188
rhand -6.79544 -54.9873
rfingers 7.12502
rthumb 19.0675 275.927
lclavicle 9.57148e-014 9.14409e-015
lhumerus -33.4104 7.67543 77.2068
lradius 24.2922
lwrist -2.77869
lhand -20.8459 -12.867
lfingers 7.12502
lthumb 5.52309 17.041
rfemur -27.9997 -1.94532 24.4946
rtibia 10.0715
rfoot -16.8544 -18.4004
rtoes -24.7893
lfemur -33.235 4.08245 -23.4934
ltibia 21.5221
lfoot -15.1029 15.6524
ltoes -29.6681
566
root 24.7352 16.2644 -9.92714 -155.075 -40.5185 180.544
lowerback -25.6541 0.367525 -4.47739
upperback 0.737917 1.86009 -1.06151
thorax 15.2286 0.463132 2.03089
lowerneck 0.768374 1.45532 -2.69465
upperneck 19.0376 0.387496 4.45756
head 5.57522 -0.0983418 1.83517
rclavicle -6.75868e-014 8.74653e-015
rhumerus -28.3906 -8.69992 -83.0036
rradius 46.8075
rwrist -10.4787
rhand -6.77872 -55.0318
rfingers 7.12502
rthumb 19.0836 275.884
lclavicle -6.75868e-014 8.74653e-015
lhumerus -33.4886 6.86313 77.3163
lradius 24.3775
lwrist -2.58462
lhand -20.8229 -13.11
lfingers 7.12502
lthumb 5.54534 16.7974
rfemur -27.0154 -0.459608 24.3805
rtibia 8.83158
rfoot -16.4378 -20.685
rtoes -26.4471
lfemur -32.9403 4.05978 -23.1083
ltibia 21.1212
lfoot -14.1963 15.2318
ltoes -34.3929
567
root 24.7138 16.2705 -9.95499 -155.178 -41.4976 180.8
lowerback -25.924 0.436947 -4.27019
upperback 0.689012 1.89078 -1.00658
thorax 15.3251 0.486754 1.99248
lowerneck 0.739254 1.39142 -2.66952
upperneck 18.9857 0.319449 4.45105
head 5.56678 -0.123447 1.82617
rclavicle 2.98177e-015 -5.24792e-014
rhumerus -28.6512 -8.76707 -82.9732
rradius 46.6368
rwrist -10.6406
rhand -6.87277 -55.1076
rfingers 7.12502
rthumb 18.9932 275.8
lclavicle 2.98177e-015 -5.24792e-014
lhumerus -33.3418 6.08115 77.6265
lradius 24.3155
lwrist -2.24125
lhand -20.8479 -13.1128
lfingers 7.12502
lthumb 5.5212 16.7952
rfemur -28.0418 -2.61569 25.2549
rtibia 10.9923
rfoot -17.8952 -19.3203
rtoes -23.6159
lfemur -32.7705 3.67768 -22.6604
ltibia 20.7492
lfoot -13.8768 14.8794
ltoes -35.0269
568
root 24.6903 16.2765 -9.97202 -155.223 -42.3627 180.835
lowerback -26.1024 0.409065 -4.21445
upperback 0.702808 1.83232 -0.897405
thorax 15.4446 0.456347 2.06949
lowerneck 0.543588 1.46501 -2.64368
upperneck 18.9194 0.489117 4.24242
head 5.57479 -0.0392905 1.7647
rclavicle -5.74488e-014 -2.74323e-014
rhumerus -28.8156 -8.7899 -82.8024
rradius 46.5161
rwrist -10.5393
rhand -6.99598 -55.0062
rfingers 7.12502
rthumb 18.8747 275.89
lclavicle -5.74488e-014 -2.74323e-014
lhumerus -33.1582 5.95604 77.8915
lradius 24.2091
lwrist -2.1685
lhand -20.7356 -12.8667
lfingers 7.12502
lthumb 5.62964 17.0385
rfemur -27.9665 -2.88969 25.3286
rtibia 11.2082
rfoot -17.8105 -19.8679
rtoes -24.6503
lfemur -32.4847 3.05306 -22.4076
ltibia 20.3528
lfoot -13.9046 14.5503
ltoes -33.2948
569
root 24.6695 16.2837 -9.98863 -155.215 -43.2637 180.817
lowerback -26.1938 0.312543 -4.1778
upperback 0.631709 1.6856 -0.860812
thorax 15.4192 0.391983 2.03589
lowerneck 0.287083 1.56922 -2.58172
upperneck 19.1352 0.664576 4.0419
head 5.68183 0.0417107 1.70225
rclavicle -1.54257e-013 -8.50798e-014
rhumerus -29.1248 -8.94971 -82.7894
rradius 46.3397
rwrist -10.2241
rhand -6.59817 -54.8895
rfingers 7.12502
rthumb 19.2572 276.044
lclavicle -1.54257e-013 -8.50798e-014
lhumerus -33.0368 6.22194 77.8463
lradius 24.0069
lwrist -2.42405
lhand -20.6375 -12.8988
lfingers 7.12502
lthumb 5.72431 17.0038
rfemur -27.8278 -2.67042 25.238
rtibia 11.3189
rfoot -17.7712 -20.8079
rtoes -25.578
lfemur -32.1959 2.52611 -22.2486
ltibia 19.8668
lfoot -13.583 14.2815
ltoes -33.6892
570
root 24.6505 16.2897 -10.0071 -155.134 -44.2544 180.816
lowerback -26.3472 0.21628 -4.0856
upperback 0.532228 1.53034 -0.885947
thorax 15.3984 0.330432 1.89531
lowerneck 0.168626 1.59058 -2.54699
upperneck 19.3037 0.701931 3.95957
head 5.75463 0.0575598 1.67425
rclavicle -3.58806e-014 4.25399e-014
rhumerus -29.5448 -9.02296 -82.9266
rradius 46.169
rwrist -10.0733
rhand -6.39321 -54.7401
rfingers 7.12502
rthumb 19.4543 276.213
lclavicle -3.58806e-014 4.25399e-014
lhumerus -32.9106 6.42335 77.7337
lradius 23.86
lwrist -2.57597
lhand -20.6965 -12.9428
lfingers 7.12502
lthumb 5.66738 16.9614
rfemur -27.9648 -2.64274 25.2357
rtibia 11.7302
rfoot -18.1065 -21.5915
rtoes -25.1521
lfemur -32.0162 1.96301 -22.0521
ltibia 19.3785
lfoot -13.1683 13.9825
ltoes -34.6503
571
root 24.5693 16.232 -10.0863 -153.178 -46.2028 178.067
lowerback -27.7099 -0.798 -5.81087
upperback 1.2229 0.889685 -1.17235
thorax 16.1586 -0.112561 2.23518
lowerneck 0.547777 1.57886 -2.48296
upperneck 18.8541 0.711007 3.97447
head 5.5492 0.0724549 1.66334
rclavicle -2.19657e-014 1.31198e-014
rhumerus -29.9532 -9.22735 -83.0296
rradius 46.1553
rwrist -9.87808
rhand -6.72486 -54.605
rfingers 7.12502
rthumb 19.1354 276.316
lclavicle -2.19657e-014 1.31198e-014
lhumerus -32.7571 6.58878 77.6739
lradius 23.8196
lwrist -2.60489
lhand -20.6024 -12.6799
lfingers 7.12502
lthumb 5.75826 17.2219
rfemur -27.3472 -5.77293 23.8901
rtibia 11.6115
rfoot -19.2608 -21.0977
rtoes -23.1582
lfemur -31.1849 1.03299 -24.5711
ltibia 18.5743
lfoot -12.3852 11.8334
ltoes -36.7807
572
root 24.5471 16.235 -10.0981 -153.117 -46.9432 177.952
lowerback -27.7504 -0.788466 -5.78434
upperback 1.1911 0.905828 -1.25816
thorax 16.1411 -0.0995266 2.13203
lowerneck 0.95549 1.5257 -2.4927
upperneck 18.4406 0.647561 4.0705
head 5.35246 0.0493403 1.68738
rclavicle 5.31749e-014 -6.36111e-015
rhumerus -30.396 -9.61211 -83.1773
rradius 46.0754
rwrist -9.37282
rhand -7.25325 -54.3154
rfingers 7.12502
rthumb 18.6272 276.556
lclavicle 5.31749e-014 -6.36111e-015
lhumerus -32.4382 7.21051 77.4511
lradius 23.4769
lwrist -3.19838
lhand -20.5054 -12.2768
lfingers 7.12502
lthumb 5.85186 17.6224
rfemur -27.643 -5.91906 23.7999
rtibia 12.4835
rfoot -19.2301 -21.7005
rtoes -25.0528
lfemur -30.7646 0.628948 -24.523
ltibia 17.9506
lfoot -12.3014 11.4392
ltoes -35.9505
573
root 24.5291 16.2408 -10.1127 -153.221 -47.6855 178.032
lowerback -27.6601 -0.736028 -5.67059
upperback 1.09791 0.928081 -1.29068
thorax 15.9872 -0.0741146 2.0421
lowerneck 0.907748 1.55165 -2.4205
upperneck 18.357 0.722747 3.94005
head 5.33361 0.0900426 1.63755
rclavicle 2.51463e-014 -7.91163e-014
rhumerus -30.8766 -9.88603 -83.273
rradius 45.8066
rwrist -8.61975
rhand -7.35561 -54.1036
rfingers 7.12502
rthumb 18.5288 276.759
lclavicle 2.51463e-014 -7.91163e-014
lhumerus -32.3294 7.37276 77.393
lradius 23.3519
lwrist -3.51299
lhand -20.5494 -11.7046
lfingers 7.12502
lthumb 5.80943 18.1958
rfemur -27.5846 -5.28453 23.7042
rtibia 12.8675
rfoot -19.1849 -22.862
rtoes -26.6482
lfemur -30.3348 0.25183 -24.2435
ltibia 17.3024
lfoot -12.3176 11.0503
ltoes -34.0921
574
root 24.5083 16.2421 -10.1235 -153.137 -48.486 177.972
lowerback -27.6754 -0.770307 -5.67805
upperback 1.02002 0.869148 -1.22134
thorax 15.9049 -0.100897 2.09864
lowerneck 0.640629 1.62911 -2.45005
upperneck 18.3677 0.89436 3.71802
head 5.37832 0.16976 1.58239
rclavicle -5.08889e-014 4.17448e-014
rhumerus -31.1635 -9.88775 -83.1258
rradius 45.4387
rwrist -8.27036
rhand -6.59157 -54.3246
rfingers 7.12502
rthumb 19.2636 276.61
lclavicle -5.08889e-014 4.17448e-014
lhumerus -32.3677 7.40102 77.5694
lradius 23.4828
lwrist -3.60777
lhand -20.4577 -11.4038
lfingers 7.12502
lthumb 5.89792 18.4941
rfemur -28.2598 -6.11022 23.8353
rtibia 14.3974
rfoot -19.8669 -22.498
rtoes -26.2172
lfemur -30.0111 -0.280039 -24.0502
ltibia 16.7427
lfoot -12.3565 10.497
ltoes -30.9178
575
root 24.4852 16.2398 -10.1271 -152.932 -49.3198 177.923
lowerback -27.7718 -0.782993 -5.58024
upperback 0.902257 0.812333 -1.20707
thorax 15.8178 -0.116933 2.03735
lowerneck 0.58459 1.62685 -2.53012
upperneck 18.2251 0.935247 3.64507
head 5.34225 0.189232 1.57455
rclavicle -7.02704e-014 2.26615e-014
rhumerus -31.4027 -9.67981 -83.0399
rradius 44.9709
rwrist -8.40708
rhand -6.47922 -54.2844
rfingers 7.12502
rthumb 19.3716 276.661
lclavicle -7.02704e-014 2.26615e-014
lhumerus -32.485 6.97423 77.7597
lradius 23.7884
lwrist -3.14541
lhand -20.1757 -11.4966
lfingers 7.12502
lthumb 6.17018 18.3935
rfemur -29.1208 -6.80164 23.9071
rtibia 16.0024
rfoot -20.3082 -22.1849
rtoes -26.7217
lfemur -29.8665 -0.814887 -23.8683
ltibia 16.2916
lfoot -12.4675 9.80029
ltoes -26.7397
576
root 24.4677 16.2369 -10.1306 -152.845 -50.1194 178.033
lowerback -27.7669 -0.720403 -5.34079
upperback 0.721483 0.805739 -1.26409
thorax 15.6074 -0.0939544 1.83975
lowerneck 0.752295 1.59491 -2.53364
upperneck 17.9819 0.912423 3.64734
head 5.23911 0.183184 1.5724
rclavicle -7.25564e-015 1.31198e-014
rhumerus -31.8478 -9.62659 -83.124
rradius 44.5341
rwrist -8.354
rhand -7.08956 -53.9859
rfingers 7.12502
rthumb 18.7847 276.901
lclavicle -7.25564e-015 1.31198e-014
lhumerus -32.4918 6.63076 77.7142
lradius 23.8227
lwrist -2.91987
lhand -19.9723 -11.8343
lfingers 7.12502
lthumb 6.36656 18.05
rfemur -29.9999 -7.14438 24.0514
rtibia 17.6321
rfoot -20.734 -22.1935
rtoes -27.5257
lfemur -29.832 -1.13214 -23.5987
ltibia 15.9007
lfoot -12.3248 9.25615
ltoes -25.2784
